<?xml version="1.0" encoding="utf-8"?>
<!-- Generator: Adobe Illustrator 23.0.1, SVG Export Plug-In . SVG Version: 6.00 Build 0)  -->
<svg version="1.1" id="Layer_1" xmlns="http://www.w3.org/2000/svg" xmlns:xlink="http://www.w3.org/1999/xlink" x="0px" y="0px"
	 viewBox="0 0 721.1 582.5" style="enable-background:new 0 0 721.1 582.5;" xml:space="preserve">
<style type="text/css">
	.st0{fill:#3F3D56;}
	.st1{fill:#FFFFFF;}
	.st2{fill:#5DA7FB;}
	.st3{fill:#FADF39;}
	.st4{opacity:0.2;enable-background:new    ;}
	.st5{fill:#CBCBCB;}
</style>
<path class="st0" d="M480.2,582.5l-0.2,0l-239.1-22.2L23.5,580.5c-11.8,1.1-22.3-7.6-23.4-19.4c-0.1-0.7-0.1-1.3-0.1-2V42
	c0-11.1,8.4-20.4,19.5-21.4L240.9,0l0.2,0l239.1,22.2L697.6,2c11.8-1.1,22.3,7.6,23.4,19.4c0.1,0.7,0.1,1.3,0.1,2v517.1
	c0,11.1-8.4,20.4-19.5,21.4L480.2,582.5z"/>
<path class="st1" d="M333.3,191.3c-46.3-33.7-95-65.7-144.7-95l-2.5-1.5v99.5h151.3L333.3,191.3z M189.4,191v-90.4
	c47.3,28,93.7,58.4,137.9,90.4L189.4,191z M567.6,395.7c-20-20.8-40.6-41.1-61.6-61c-5.8-5.5-11.6-10.9-17.5-16.3
	c-35.9-32.9-72.9-64.3-111.1-94l-0.4-0.3H186.1v174.5h384.2L567.6,395.7z M189.4,395.2V227.4h186.4c36.9,28.7,72.7,58.9,107.6,90.8
	c6.1,5.5,12.1,11.1,18,16.7c20.9,19.6,41.3,39.7,61.1,60.3H189.4z M567.6,395.7c-20-20.8-40.6-41.1-61.6-61
	c-5.8-5.5-11.6-10.9-17.5-16.3c-35.9-32.9-72.9-64.3-111.1-94l-0.4-0.3H186.1v174.5h384.2L567.6,395.7z M189.4,395.2V227.4h186.4
	c36.9,28.7,72.7,58.9,107.6,90.8c6.1,5.5,12.1,11.1,18,16.7c20.9,19.6,41.3,39.7,61.1,60.3H189.4z M333.3,191.3
	c-46.3-33.7-95-65.7-144.7-95l-2.5-1.5v99.5h151.3L333.3,191.3z M189.4,191v-90.4c47.3,28,93.7,58.4,137.9,90.4L189.4,191z
	 M333.3,191.3c-46.3-33.7-95-65.7-144.7-95l-2.5-1.5v99.5h151.3L333.3,191.3z M189.4,191v-90.4c47.3,28,93.7,58.4,137.9,90.4
	L189.4,191z M567.6,395.7c-20-20.8-40.6-41.1-61.6-61c-5.8-5.5-11.6-10.9-17.5-16.3c-35.9-32.9-72.9-64.3-111.1-94l-0.4-0.3H186.1
	v174.5h384.2L567.6,395.7z M189.4,395.2V227.4h186.4c36.9,28.7,72.7,58.9,107.6,90.8c6.1,5.5,12.1,11.1,18,16.7
	c20.9,19.6,41.3,39.7,61.1,60.3H189.4z M22.4,428.3v3.3H153v48H22.4v3.3h133.9v-54.6H22.4z M186.1,512.6v33.5l3.3-0.3v-29.9h509.3
	v-3.3L186.1,512.6z M698.7,431.6v-3.3H186.1v54.6h512.6v-3.3H189.4v-48L698.7,431.6z M389.9,191c-63.5-48.9-130.5-93.1-200.5-132.1
	V25.4l-3.3,0.3v33.7l2.5,2.8c69.7,38.9,136.5,82.9,199.7,131.7l0.4,0.3h310V191H389.9z M153,191H22.4v3.3h133.9V28.5l-3.3,0.3
	L153,191z M698.7,224.1H426.2l3.6,2.9c33.6,27.6,66.5,56.9,98.8,87.8c4.6,4.4,9.2,8.8,13.7,13.3c22.7,22.2,45,45.1,66.8,68.8
	l2.7,1.6h86.8v-3.3h-86.6c-21.6-23.4-43.7-46.2-66.2-68.2c-4.5-4.4-9-8.8-13.6-13.2c-31.6-30.4-63.9-59.2-96.9-86.5h263.3V224.1z
	 M22.4,512.6v3.3H153v33.3l3.3-0.3v-36.3H22.4z M22.4,224.1v3.3H153v167.8H22.4v3.3h133.9V224.1H22.4z M333.3,191.3
	c-46.3-33.7-95-65.7-144.7-95l-2.5-1.5v99.5h151.3L333.3,191.3z M189.4,191v-90.4c47.3,28,93.7,58.4,137.9,90.4L189.4,191z
	 M567.6,395.7c-20-20.8-40.6-41.1-61.6-61c-5.8-5.5-11.6-10.9-17.5-16.3c-35.9-32.9-72.9-64.3-111.1-94l-0.4-0.3H186.1v174.5h384.2
	L567.6,395.7z M189.4,395.2V227.4h186.4c36.9,28.7,72.7,58.9,107.6,90.8c6.1,5.5,12.1,11.1,18,16.7c20.9,19.6,41.3,39.7,61.1,60.3
	H189.4z M333.3,191.3c-46.3-33.7-95-65.7-144.7-95l-2.5-1.5v99.5h151.3L333.3,191.3z M189.4,191v-90.4c47.3,28,93.7,58.4,137.9,90.4
	L189.4,191z M567.6,395.7c-20-20.8-40.6-41.1-61.6-61c-5.8-5.5-11.6-10.9-17.5-16.3c-35.9-32.9-72.9-64.3-111.1-94l-0.4-0.3H186.1
	v174.5h384.2L567.6,395.7z M189.4,395.2V227.4h186.4c36.9,28.7,72.7,58.9,107.6,90.8c6.1,5.5,12.1,11.1,18,16.7
	c20.9,19.6,41.3,39.7,61.1,60.3H189.4z"/>
<path class="st2" d="M369.3,217.6c0,41.9-75.8,135.2-75.8,135.2s-75.8-93.3-75.8-135.2c0-41.9,34-75.8,75.9-75.8
	C335.4,141.9,369.3,175.8,369.3,217.6L369.3,217.6z"/>
<path class="st1" d="M328.2,214.3c0,19.1-15.5,34.7-34.7,34.7s-34.7-15.5-34.7-34.7s15.5-34.7,34.7-34.7l0,0
	C312.6,179.7,328.2,195.2,328.2,214.3C328.2,214.3,328.2,214.3,328.2,214.3z"/>
<circle class="st2" cx="293.5" cy="387.1" r="20.4"/>
<circle class="st3" cx="489.4" cy="100.3" r="30.2"/>
<path class="st1" d="M584.1,193.4H435.9c-0.2,0-0.4,0-0.6,0l70.1-121.5c1.3-2.4,4.3-3.2,6.7-1.9c0.8,0.4,1.4,1.1,1.9,1.9l47.1,81.5
	l2.3,3.9L584.1,193.4z"/>
<polygon class="st4" points="584.1,193.4 533.5,193.4 558.4,157.3 560.2,154.7 561.1,153.4 563.3,157.3 "/>
<path class="st1" d="M666.7,193.4H538.5l24.8-36.1l1.8-2.6l32.4-47c2.1-3.1,7.2-3.3,9.7-0.6c0.2,0.2,0.3,0.4,0.5,0.6L666.7,193.4z"
	/>
<circle class="st1" cx="676.2" cy="349.3" r="15.3"/>
<polygon class="st5" points="677.7,395.4 674.6,395.4 676,347 "/>
<polygon class="st5" points="676.3,356.2 679.6,351.5 676.2,357.4 675.8,356.7 "/>
<polygon class="st5" points="675.9,360.9 672.5,356.2 675.9,362.1 676.3,361.4 "/>
<circle class="st1" cx="632.7" cy="327.4" r="22.6"/>
<polygon class="st5" points="634.9,395.4 630.3,395.4 632.4,324 "/>
<polygon class="st5" points="632.8,337.5 637.8,330.6 632.7,339.2 632.2,338.2 "/>
<polygon class="st5" points="632.2,344.4 627.3,337.6 632.3,346.1 632.9,345.2 "/>
<circle class="st1" cx="108.2" cy="349.3" r="15.3"/>
<polygon class="st5" points="109.7,395.4 106.6,395.4 108,347 "/>
<polygon class="st5" points="108.3,356.2 111.6,351.5 108.2,357.4 107.8,356.7 "/>
<polygon class="st5" points="107.9,360.9 104.5,356.2 107.9,362.1 108.3,361.4 "/>
<circle class="st1" cx="64.7" cy="327.4" r="22.6"/>
<polygon class="st5" points="66.9,395.4 62.3,395.4 64.4,324 "/>
<polygon class="st5" points="64.8,337.5 69.8,330.6 64.7,339.2 64.2,338.2 "/>
<polygon class="st5" points="64.2,344.4 59.3,337.6 64.3,346.1 64.9,345.2 "/>
</svg>
