<?xml version="1.0" encoding="utf-8"?>
<!-- Generator: Adobe Illustrator 23.0.1, SVG Export Plug-In . SVG Version: 6.00 Build 0)  -->
<svg version="1.1" id="Layer_1" xmlns="http://www.w3.org/2000/svg" xmlns:xlink="http://www.w3.org/1999/xlink" x="0px" y="0px"
	 viewBox="0 0 1366 768" style="enable-background:new 0 0 1366 768;" xml:space="preserve">
<style type="text/css">
	.st0{fill:#5BA6FB;stroke:#5BA6FB;stroke-miterlimit:10;}
	.st1{fill:#F6D7B0;}
</style>
<title>SAND</title>
<rect x="-94.5" y="-89.5" class="st0" width="1790" height="1017"/>
<path class="st1" d="M-23,228.5c433.6,18.4,866.2-90.3,1299.4-63.1c117.6,7.4,234.5,24.8,351.3,42.2l284,42.3
	c8.2,1.2,16.7,2.6,23.6,7.7c15.1,11.2,17.2,35.4,15.1,55.8c-8.2,81.6-71.6,445.8-116.1,510.4c-15.2,22-31.3,44.9-53.7,56.3
	c-18.7,9.5-39.8,10-60.2,10.3l-576.6,9.7c-187,3.1-374.1,6.3-561,1c-190.6-5.4-368.3,12.4-558.5-1.8c-9.1-0.7-18.8-1.7-25.8-8.3
	c-8-7.7-10-20.6-11.3-32.5c-10.9-97-8.5-522.4-1.8-619.9"/>
</svg>
